<svg width="472" height="471" viewBox="0 0 472 471" fill="none" xmlns="http://www.w3.org/2000/svg">
<rect x="1" y="0.773438" width="470" height="470" fill="#F9F9F9"/>
<path d="M157 0.773438V470.773" stroke="#1F1E1E" stroke-width="0.5"/>
<path d="M315 0.773438V470.773" stroke="#1F1E1E" stroke-width="0.5"/>
<path d="M470.999 156.773H0.999289" stroke="#1F1E1E" stroke-width="0.5"/>
<circle cx="188.614" cy="157.321" r="3.77704" fill="#1F1E1E"/>
<path d="M200.851 153.04L204.994 160.217H196.708L200.851 153.04Z" fill="#1F1E1E"/>
<path d="M470.999 314.773H0.999289" stroke="#1F1E1E" stroke-width="0.5"/>
<path d="M156.979 314.771L1.16805 470.585" stroke="#1F1E1E" stroke-width="0.5"/>
<path d="M314.894 0.773438L470.999 156.773" stroke="#1F1E1E" stroke-width="0.5"/>
<path d="M314.894 156.773L470.815 314.688" stroke="#1F1E1E" stroke-width="0.5"/>
<path d="M314.931 470.598L157.096 314.771" stroke="#1F1E1E" stroke-width="0.5"/>
<path d="M315 0.773438L157 156.773" stroke="#1F1E1E" stroke-width="0.5"/>
<path d="M315 156.773L157.174 314.614" stroke="#1F1E1E" stroke-width="0.5"/>
<path d="M315.062 470.598L470.829 314.836" stroke="#1F1E1E" stroke-width="0.5"/>
<path d="M1.14648 314.822L156.784 470.556" stroke="#1F1E1E" stroke-width="0.5"/>
<path d="M1.16642 0.918429L314.89 314.731" stroke="#1F1E1E" stroke-width="0.5"/>
<circle cx="412.132" cy="370.841" r="3.77704" transform="rotate(-37.9931 412.132 370.841)" fill="#1F1E1E"/>
<path d="M419.141 359.935L426.824 363.04L420.293 368.141L419.141 359.935Z" fill="#1F1E1E"/>
</svg>
